<svg width="267" height="230" viewBox="0 0 267 230" fill="none" xmlns="http://www.w3.org/2000/svg">
<path d="M192.838 49.2456H145.768C141.186 49.2456 135.897 46.6476 134.448 43.6859L132.476 39.655C129.828 34.2411 121.193 30 112.818 30H75.1622C66.2504 30 59 34.9406 59 41.0136V79.5053C59 81.1592 60.9676 82.5 63.3945 82.5C65.8215 82.5 67.7891 81.1592 67.7891 79.5053C67.7891 76.7349 71.0967 74.4809 75.1622 74.4809H192.838C196.904 74.4809 200.211 76.7349 200.211 79.5053C200.211 81.1592 202.179 82.5 204.605 82.5C207.032 82.5 209 81.1592 209 79.5053V60.2596C209 54.1864 201.75 49.2456 192.838 49.2456Z" fill="#35C94A"/>
<path d="M192.838 49.3565H145.768C141.186 49.3565 135.897 46.8063 134.448 43.8989L134 43V74.1282H192.838C196.904 74.1282 200.211 76.3408 200.211 79.0603C200.211 80.6838 202.179 82 204.605 82C207.032 82 209 80.6838 209 79.0603V60.1682C209 54.2065 201.75 49.3565 192.838 49.3565Z" fill="#35C94A"/>
<path d="M192.838 56.4844H75.1622C66.2504 56.4844 59 63.7348 59 72.6466V133.838C59 142.75 66.2504 150 75.1622 150H192.838C201.75 150 209 142.75 209 133.838V72.6466C209 63.7348 201.75 56.4844 192.838 56.4844V56.4844Z" fill="#8BFF54"/>
<path d="M26.895 185.27C26.175 184.46 25.215 183.92 24.045 183.59C26.595 182.75 27.885 181.25 27.885 179.06V178.73C27.885 175.16 24.885 173.36 18.885 173.36H2.175V194H8.655V186.68H17.115C18.705 186.68 19.815 186.98 20.475 187.55C21.135 188.12 21.465 189.05 21.465 190.31V194H27.975V188.33C27.975 187.07 27.615 186.05 26.895 185.27ZM21.105 180.08C21.105 180.68 20.895 181.19 20.475 181.55C20.055 181.91 19.395 182.12 18.495 182.12H8.655V178.04H18.495C19.395 178.04 20.055 178.25 20.475 178.61C20.895 178.97 21.105 179.45 21.105 180.05V180.08ZM53.5289 189.95C52.9889 189.95 52.7189 189.68 52.7189 189.17V183.2C52.7189 182.66 52.6589 182.18 52.5989 181.79C52.5089 181.4 52.2989 180.98 51.9089 180.47C51.5489 179.99 51.0389 179.6 50.3789 179.27C49.7189 178.97 48.7889 178.7 47.5289 178.49C46.2989 178.28 44.7989 178.19 43.0589 178.19H31.7789V181.79L42.3989 181.76C43.5689 181.76 44.4989 181.85 45.1289 182C45.7589 182.12 46.1489 182.27 46.2689 182.42C46.3889 182.6 46.4489 182.78 46.4489 183.05C46.4489 183.5 46.1189 183.77 45.4889 183.86L38.3189 184.52C35.9789 184.73 34.2989 185.21 33.2789 185.93C32.2589 186.68 31.7789 187.76 31.7789 189.17V189.38C31.7789 190.85 32.3489 192.05 33.5489 193.01C34.7489 193.97 36.5789 194.45 39.0389 194.45H39.3989C41.4089 194.45 42.9989 194.21 44.1689 193.7C45.3389 193.19 46.1489 192.62 46.6289 192.05C46.8689 193.46 47.6789 194.18 49.1189 194.18H54.3689V189.95H53.5289ZM46.4489 187.25C46.4489 188.24 45.9389 189.08 44.8589 189.83C43.8089 190.58 42.4289 190.97 40.7789 190.97C39.7589 190.97 39.0389 190.79 38.5889 190.46C38.1389 190.1 37.9289 189.68 37.9289 189.2V189.17C37.9289 188.75 38.1089 188.45 38.4389 188.24C38.7989 188.03 39.3989 187.85 40.2689 187.73L46.4489 186.77V187.25ZM76.8902 172.82V180.65C74.9102 179.06 72.1502 178.25 68.6102 178.25H68.1302C64.6502 178.25 62.1002 178.94 60.4502 180.35C58.8302 181.76 58.0202 183.56 58.0202 185.78V186.32C58.0202 188.6 58.8602 190.49 60.6002 191.93C62.3102 193.4 64.9202 194.12 68.4002 194.12H68.7902C70.0202 194.12 71.1602 194 72.2102 193.79C73.2602 193.58 74.0702 193.31 74.7302 192.98C75.3602 192.68 75.8402 192.38 76.2002 192.14C76.5302 191.87 76.8002 191.66 76.9502 191.45V193.76H83.7602V172.82H76.8902ZM76.8902 186.11V186.2C76.8902 187.25 76.3502 188.18 75.2402 188.96C74.1302 189.74 72.6302 190.13 70.7102 190.13H70.5602C68.7002 190.13 67.2902 189.74 66.3902 188.96C65.4602 188.18 65.0102 187.25 65.0102 186.2V186.11C65.0102 184.97 65.4302 184.04 66.2402 183.32C67.0802 182.57 68.4902 182.21 70.5002 182.21H70.6502C72.5702 182.21 74.0702 182.6 75.2102 183.38C76.3202 184.13 76.8902 185.06 76.8902 186.11ZM95.1584 173H88.3484V177.32H95.1584V173ZM95.1584 178.79H88.3484V193.94H95.1584V178.79ZM113.131 194.09C120.991 194.09 124.921 191.48 124.921 186.26V185.75C124.921 180.65 120.991 178.1 113.131 178.1H110.941C109.111 178.1 107.461 178.25 106.051 178.58C104.641 178.88 103.501 179.27 102.631 179.78C101.761 180.29 101.071 180.86 100.531 181.58C99.9907 182.27 99.6307 182.93 99.4207 183.62C99.2107 184.31 99.1207 185 99.1207 185.75V186.26C99.1207 187.01 99.2107 187.73 99.4207 188.42C99.6307 189.11 99.9907 189.8 100.561 190.52C101.101 191.21 101.791 191.84 102.661 192.35C103.531 192.86 104.671 193.25 106.081 193.58C107.491 193.91 109.141 194.09 110.971 194.09H113.131ZM112.051 190.01C109.921 190.01 108.391 189.62 107.491 188.84C106.561 188.09 106.111 187.16 106.111 186.11V185.96C106.111 184.85 106.561 183.92 107.461 183.2C108.361 182.48 109.891 182.12 112.051 182.12H112.081C114.181 182.12 115.711 182.48 116.611 183.23C117.541 183.95 117.991 184.88 117.991 185.96V186.11C117.991 187.16 117.541 188.09 116.611 188.84C115.711 189.62 114.181 190.01 112.051 190.01ZM150.056 189.95C149.516 189.95 149.246 189.68 149.246 189.17V183.2C149.246 182.66 149.186 182.18 149.126 181.79C149.036 181.4 148.826 180.98 148.436 180.47C148.076 179.99 147.566 179.6 146.906 179.27C146.246 178.97 145.316 178.7 144.056 178.49C142.826 178.28 141.326 178.19 139.586 178.19H128.306V181.79L138.926 181.76C140.096 181.76 141.026 181.85 141.656 182C142.286 182.12 142.676 182.27 142.796 182.42C142.916 182.6 142.976 182.78 142.976 183.05C142.976 183.5 142.646 183.77 142.016 183.86L134.846 184.52C132.506 184.73 130.826 185.21 129.806 185.93C128.786 186.68 128.306 187.76 128.306 189.17V189.38C128.306 190.85 128.876 192.05 130.076 193.01C131.276 193.97 133.106 194.45 135.566 194.45H135.926C137.936 194.45 139.526 194.21 140.696 193.7C141.866 193.19 142.676 192.62 143.156 192.05C143.396 193.46 144.206 194.18 145.646 194.18H150.896V189.95H150.056ZM142.976 187.25C142.976 188.24 142.466 189.08 141.386 189.83C140.336 190.58 138.956 190.97 137.306 190.97C136.286 190.97 135.566 190.79 135.116 190.46C134.666 190.1 134.456 189.68 134.456 189.2V189.17C134.456 188.75 134.636 188.45 134.966 188.24C135.326 188.03 135.926 187.85 136.796 187.73L142.976 186.77V187.25ZM166.038 194.12H167.718C169.728 194.12 171.468 193.94 172.968 193.58C174.468 193.25 175.608 192.83 176.388 192.35C177.168 191.87 177.798 191.3 178.278 190.64C178.728 189.98 179.028 189.38 179.148 188.9C179.268 188.39 179.328 187.88 179.328 187.37V187.31H172.308C171.828 189.17 169.998 190.1 166.848 190.1H166.758C164.958 190.1 163.608 189.71 162.768 188.93C161.958 188.15 161.538 187.19 161.538 186.05V185.84C161.538 184.76 161.928 183.86 162.768 183.17C163.608 182.45 164.928 182.09 166.758 182.09H166.848C170.028 182.09 171.858 183.02 172.308 184.82H179.328V184.76C179.328 184.25 179.268 183.77 179.148 183.26C178.998 182.78 178.698 182.21 178.218 181.55C177.708 180.92 177.078 180.35 176.298 179.87C175.518 179.39 174.378 178.97 172.908 178.64C171.438 178.31 169.698 178.13 167.748 178.13H166.008C164.208 178.13 162.618 178.31 161.208 178.61C159.828 178.94 158.718 179.33 157.878 179.84C157.068 180.35 156.378 180.92 155.868 181.61C155.358 182.33 154.998 182.99 154.818 183.65C154.638 184.34 154.548 185.03 154.548 185.75V186.32C154.548 187.04 154.638 187.76 154.818 188.42C154.998 189.11 155.358 189.8 155.868 190.52C156.408 191.24 157.098 191.84 157.908 192.35C158.718 192.86 159.828 193.28 161.238 193.61C162.648 193.94 164.238 194.12 166.038 194.12ZM191.199 193.85H197.109V189.71H195.249C194.679 189.71 194.319 189.59 194.139 189.38C193.959 189.17 193.869 188.84 193.869 188.39V182.9H197.109V178.73H193.869V174.32H187.119V178.73H183.909V182.9H187.119V189.56C187.119 192.44 188.469 193.85 191.199 193.85ZM208.508 173H201.698V177.32H208.508V173ZM208.508 178.79H201.698V193.94H208.508V178.79ZM220.27 193.94H228.49L236.53 178.82H229.66L224.53 189.17L219.22 178.82H211.87L220.27 193.94ZM264.983 188.42V188.39H258.233C258.233 188.51 258.173 188.63 258.083 188.75C258.023 188.87 257.843 189.02 257.633 189.23C257.393 189.41 257.093 189.59 256.703 189.74C256.343 189.92 255.833 190.04 255.173 190.16C254.513 190.28 253.733 190.34 252.893 190.34H252.863C249.413 190.34 247.463 189.35 247.013 187.37H265.073V186.35C265.073 180.89 261.263 178.19 253.613 178.19H251.753C249.593 178.19 247.763 178.4 246.203 178.82C244.673 179.24 243.473 179.81 242.663 180.56C241.823 181.31 241.223 182.09 240.863 182.96C240.503 183.83 240.323 184.76 240.323 185.81V186.41C240.323 187.46 240.503 188.45 240.893 189.32C241.313 190.19 241.943 191 242.783 191.75C243.653 192.5 244.853 193.1 246.413 193.52C247.973 193.94 249.803 194.15 251.933 194.15H253.673C255.563 194.15 257.213 194.03 258.623 193.76C260.063 193.49 261.143 193.13 261.923 192.74C262.703 192.32 263.333 191.87 263.843 191.3C264.323 190.76 264.623 190.28 264.773 189.8C264.923 189.35 264.983 188.9 264.983 188.42ZM252.653 181.7C255.863 181.7 257.693 182.54 258.173 184.25H247.133C247.703 182.54 249.533 181.7 252.623 181.7H252.653ZM82.8382 224.36H84.0982C86.2882 224.36 88.1182 224.24 89.6182 223.97C91.1182 223.7 92.2282 223.31 92.9782 222.8C93.7282 222.29 94.2382 221.75 94.5382 221.18C94.8382 220.61 94.9882 219.92 94.9882 219.17V218.99C94.9882 217.91 94.7482 217.04 94.2982 216.41C93.8482 215.78 92.9182 215.27 91.5382 214.88C90.1882 214.49 88.2682 214.28 85.7782 214.25L82.8382 214.19C81.5182 214.16 80.6182 214.04 80.1082 213.83C79.6282 213.65 79.3882 213.35 79.3882 212.96V212.93C79.3882 212.51 79.6582 212.21 80.1682 212.06C80.7082 211.88 81.7582 211.79 83.3182 211.79H83.3482C84.1882 211.79 84.9082 211.85 85.5082 211.94C86.0782 212.06 86.4982 212.18 86.7382 212.36C86.9782 212.54 87.1582 212.72 87.2182 212.84C87.3082 212.99 87.3682 213.14 87.3982 213.35H94.3882V213.14C94.3882 209.96 90.9382 208.4 84.0382 208.4H82.8082C81.0682 208.4 79.5382 208.49 78.2482 208.67C76.9582 208.85 75.9382 209.09 75.2182 209.36C74.4682 209.66 73.8982 210.02 73.4482 210.44C72.9982 210.86 72.7282 211.31 72.5782 211.7C72.4582 212.12 72.3982 212.6 72.3982 213.11V213.29C72.3982 213.89 72.5182 214.43 72.7882 214.94C73.0582 215.45 73.5082 215.93 74.1082 216.41C74.7382 216.86 75.6682 217.25 76.8682 217.52C78.0982 217.82 79.5682 217.97 81.2782 218L84.2182 218.06C85.7182 218.09 86.6782 218.21 87.1582 218.42C87.6082 218.63 87.8482 218.96 87.8482 219.38V219.44C87.8482 219.74 87.7582 219.95 87.6082 220.16C87.4282 220.34 87.0082 220.49 86.3482 220.64C85.6882 220.79 84.7582 220.88 83.5882 220.88H83.5282C80.7082 220.88 79.2982 220.19 79.2982 218.81H72.2482V218.99C72.2482 222.59 75.7582 224.36 82.8382 224.36ZM106.162 223.85H112.072V219.71H110.212C109.642 219.71 109.282 219.59 109.102 219.38C108.922 219.17 108.832 218.84 108.832 218.39V212.9H112.072V208.73H108.832V204.32H102.082V208.73H98.8718V212.9H102.082V219.56C102.082 222.44 103.432 223.85 106.162 223.85ZM130.041 224.09C137.901 224.09 141.831 221.48 141.831 216.26V215.75C141.831 210.65 137.901 208.1 130.041 208.1H127.851C126.021 208.1 124.371 208.25 122.961 208.58C121.551 208.88 120.411 209.27 119.541 209.78C118.671 210.29 117.981 210.86 117.441 211.58C116.901 212.27 116.541 212.93 116.331 213.62C116.121 214.31 116.031 215 116.031 215.75V216.26C116.031 217.01 116.121 217.73 116.331 218.42C116.541 219.11 116.901 219.8 117.471 220.52C118.011 221.21 118.701 221.84 119.571 222.35C120.441 222.86 121.581 223.25 122.991 223.58C124.401 223.91 126.051 224.09 127.881 224.09H130.041ZM128.961 220.01C126.831 220.01 125.301 219.62 124.401 218.84C123.471 218.09 123.021 217.16 123.021 216.11V215.96C123.021 214.85 123.471 213.92 124.371 213.2C125.271 212.48 126.801 212.12 128.961 212.12H128.991C131.091 212.12 132.621 212.48 133.521 213.23C134.451 213.95 134.901 214.88 134.901 215.96V216.11C134.901 217.16 134.451 218.09 133.521 218.84C132.621 219.62 131.091 220.01 128.961 220.01ZM158.536 208.04C157.336 208.04 156.286 208.25 155.296 208.67C154.336 209.09 153.646 209.51 153.226 209.9C152.836 210.29 152.506 210.71 152.236 211.1V208.37H145.846V223.85H152.266V215.87C152.266 214.79 152.566 213.92 153.166 213.2C153.766 212.48 154.966 211.79 155.746 211.7C156.526 211.61 165.646 211.61 165.646 211.61V208.04H158.536ZM193.95 218.42V218.39H187.2C187.2 218.51 187.14 218.63 187.05 218.75C186.99 218.87 186.81 219.02 186.6 219.23C186.36 219.41 186.06 219.59 185.67 219.74C185.31 219.92 184.8 220.04 184.14 220.16C183.48 220.28 182.7 220.34 181.86 220.34H181.83C178.38 220.34 176.43 219.35 175.98 217.37H194.04V216.35C194.04 210.89 190.23 208.19 182.58 208.19H180.72C178.56 208.19 176.73 208.4 175.17 208.82C173.64 209.24 172.44 209.81 171.63 210.56C170.79 211.31 170.19 212.09 169.83 212.96C169.47 213.83 169.29 214.76 169.29 215.81V216.41C169.29 217.46 169.47 218.45 169.86 219.32C170.28 220.19 170.91 221 171.75 221.75C172.62 222.5 173.82 223.1 175.38 223.52C176.94 223.94 178.77 224.15 180.9 224.15H182.64C184.53 224.15 186.18 224.03 187.59 223.76C189.03 223.49 190.11 223.13 190.89 222.74C191.67 222.32 192.3 221.87 192.81 221.3C193.29 220.76 193.59 220.28 193.74 219.8C193.89 219.35 193.95 218.9 193.95 218.42ZM181.62 211.7C184.83 211.7 186.66 212.54 187.14 214.25H176.1C176.67 212.54 178.5 211.7 181.59 211.7H181.62Z" fill="black"/>
<g clip-path="url(#clip0)">
<path d="M162.758 95.4828C161.217 94.5854 159.566 93.89 157.848 93.4139C158.292 91.6835 158.514 89.9037 158.51 88.1173C158.51 76.2001 148.992 66.3931 136.73 65.1241L136.716 65.1792C145.34 66.5163 151.7 73.9422 151.696 82.669C151.709 85.7768 150.884 88.8309 149.31 91.5104C149.076 91.9345 148.819 92.3443 148.537 92.7381C147.769 93.8567 146.871 94.8801 145.861 95.7864C139.132 101.892 128.867 101.892 122.137 95.7864C121.127 94.8801 120.229 93.8568 119.461 92.7381C119.18 92.3445 118.922 91.9345 118.689 91.5104C117.114 88.8309 116.29 85.777 116.303 82.669C116.298 73.9422 122.658 66.5163 131.282 65.1792V65.1241C119.02 66.3792 109.489 76.1999 109.489 88.1171C109.484 89.9035 109.707 91.6832 110.151 93.4137C108.436 93.8876 106.79 94.5831 105.254 95.4826C94.7577 101.538 91.0611 115.041 96.4817 126.407L96.5094 126.393C94.4858 121.659 94.6208 116.28 96.8797 111.653C99.1385 107.027 103.298 103.612 108.275 102.297C109.771 101.912 111.31 101.722 112.854 101.731C113.337 101.731 113.778 101.759 114.247 101.8C115.617 101.907 116.969 102.175 118.275 102.6C122.419 103.949 125.918 106.784 128.096 110.559C128.1 110.559 128.103 110.56 128.106 110.563C128.108 110.565 128.11 110.569 128.11 110.572V110.586C130.264 114.298 130.981 118.671 130.123 122.876C129.838 124.29 129.384 125.666 128.772 126.972C128.606 127.317 128.427 127.676 128.247 128.021C125.441 133.07 120.348 136.433 114.602 137.032C108.856 137.63 103.18 135.39 99.3921 131.028L99.3369 131.083C106.634 140.641 119.613 143.773 129.751 137.924C131.298 137.038 132.725 135.958 133.999 134.71C135.275 135.955 136.703 137.034 138.247 137.924C148.399 143.773 161.392 140.641 168.675 131.055L168.62 131.014C164.839 135.386 159.161 137.635 153.412 137.039C147.663 136.443 142.568 133.076 139.765 128.021C139.572 127.676 139.392 127.317 139.227 126.972C138.614 125.666 138.16 124.291 137.875 122.876C137.025 118.671 137.741 114.3 139.889 110.586V110.572C139.889 110.569 139.89 110.565 139.893 110.563C139.895 110.56 139.899 110.558 139.903 110.559C142.081 106.784 145.579 103.949 149.723 102.6C151.029 102.175 152.381 101.907 153.751 101.8C154.22 101.759 154.675 101.731 155.144 101.731C161.103 101.696 166.678 104.667 169.972 109.632C173.267 114.598 173.837 120.889 171.489 126.366L171.53 126.379C176.923 115.014 173.255 101.538 162.758 95.4828Z" fill="#010F03"/>
<path d="M140.523 121.979C140.535 122.095 140.554 122.211 140.579 122.324C140.815 123.53 141.2 124.702 141.723 125.814C141.861 126.076 142.013 126.379 142.165 126.669C142.244 126.817 142.332 126.959 142.427 127.097C150.521 123.709 155.787 115.789 155.779 107.014C155.784 106.175 155.733 105.336 155.627 104.504C155.494 104.492 155.36 104.488 155.227 104.49C154.758 104.49 154.386 104.518 153.999 104.545C152.836 104.633 151.688 104.86 150.579 105.221C150.466 105.264 150.351 105.301 150.234 105.331C150.301 105.89 150.333 106.452 150.33 107.014C150.333 113.51 146.481 119.389 140.523 121.979Z" fill="#010F03"/>
<path d="M121.061 90.1034C121.254 90.4581 121.47 90.7992 121.71 91.1242C122.357 92.0801 123.117 92.9553 123.972 93.7311C124.054 93.8 124.123 93.869 124.206 93.9379C130.002 89.5793 137.982 89.5793 143.779 93.9379C143.858 93.8811 143.932 93.8164 143.999 93.7448C144.856 92.9807 145.615 92.1145 146.261 91.1654C146.492 90.8518 146.704 90.5249 146.896 90.186C146.992 90.0067 147.103 89.8412 147.185 89.662C139.392 83.7402 128.606 83.7402 120.813 89.662C120.896 89.8137 120.978 89.9517 121.061 90.1034Z" fill="#010F03"/>
<path d="M117.42 105.221C116.319 104.862 115.18 104.635 114.026 104.545C113.613 104.517 113.254 104.49 112.854 104.49H112.702C112.592 104.487 112.481 104.492 112.371 104.503C112.265 105.336 112.214 106.174 112.22 107.014C112.211 115.792 117.484 123.715 125.585 127.097C125.682 126.959 125.751 126.821 125.833 126.683C125.971 126.434 126.137 126.103 126.289 125.772C126.803 124.682 127.183 123.534 127.42 122.352C127.447 122.228 127.461 122.104 127.489 121.979C121.525 119.394 117.667 113.514 117.668 107.014C117.665 106.456 117.698 105.899 117.764 105.345C117.654 105.303 117.53 105.262 117.42 105.221Z" fill="#010F03"/>
</g>
<defs>
<clipPath id="clip0">
<rect width="80" height="80" fill="white" transform="translate(94 63)"/>
</clipPath>
</defs>
</svg>
